<svg width="50" height="50" viewBox="0 0 50 50" fill="none" xmlns="http://www.w3.org/2000/svg">
<path d="M29.4134 21.5556C30.5241 18.9283 30.8518 16.0359 30.3569 13.2266C29.862 10.4174 28.5657 7.81115 26.624 5.72183C24.6824 3.6325 22.1782 2.14919 19.4132 1.45056C16.6481 0.751928 13.74 0.867763 11.0393 1.78411C8.3385 2.70047 5.96019 4.37825 4.1908 6.6154C2.42141 8.85254 1.33639 11.5536 1.06642 14.3933C0.796461 17.2331 1.35307 20.0903 2.66921 22.6209C3.98535 25.1515 6.00488 27.2475 8.48458 28.6566M15.806 15.7121L21.3524 10.1644M44.6477 25.291L40.7282 26.3636C40.4742 26.4417 40.2515 26.5983 40.0921 26.811C39.9326 27.0236 39.8446 27.2813 39.8408 27.547V32.355L23.571 34.2782C22.2398 34.3396 20.938 34.6905 19.7561 35.3065C18.5743 35.9224 17.5409 36.7886 16.7279 37.8447C15.9148 38.9008 15.3417 40.1215 15.0484 41.4217C14.7551 42.7219 14.7486 44.0705 15.0294 45.3735C15.1103 45.693 15.2551 45.9929 15.4551 46.255C15.655 46.5171 15.9059 46.7359 16.1927 46.8984C16.4795 47.0608 16.7962 47.1635 17.1238 47.2001C17.4513 47.2368 17.7829 47.2067 18.0985 47.1117L27.8973 44.4859L28.7478 44.4119L33.6657 48.6651C33.8378 48.8087 34.0411 48.9103 34.2593 48.9617C34.4775 49.013 34.7047 49.0128 34.9229 48.961L39.3601 47.7405C39.594 47.6871 39.8091 47.5716 39.9827 47.406C40.1564 47.2404 40.282 47.0309 40.3464 46.7998C40.4108 46.5686 40.4116 46.3244 40.3486 46.0928C40.2856 45.8613 40.1613 45.6511 39.9887 45.4844L36.9196 42.2298L37.5482 42.0449L47.1251 39.456C47.7543 39.2982 48.2964 38.8999 48.6352 38.3467C48.974 37.7935 49.0823 37.1295 48.937 36.4972L46.1268 26.1047C46.0251 25.8097 45.8174 25.563 45.5441 25.4126C45.2707 25.2623 44.9512 25.2189 44.6477 25.291Z" stroke="#153041" stroke-width="2" stroke-linecap="round" stroke-linejoin="round"/>
</svg>
