<svg width="48" height="48" viewBox="0 0 48 48" fill="none" xmlns="http://www.w3.org/2000/svg">
<path d="M40.9426 1.00831C40.8698 1.01049 40.7737 1.01154 40.661 1.01154C40.19 1.01154 39.5595 1.33301 38.9962 2.20599C38.4459 3.05866 38.0515 4.32199 38.0515 5.84228C38.0515 7.36504 38.4803 8.68765 39.0574 9.55883C39.0575 9.55896 39.0576 9.55909 39.0577 9.55922L40.0875 11.1077L40.6257 11.917L41.1804 11.1128L42.2174 9.60962L40.9426 1.00831ZM40.9426 1.00831C41.3706 1.11082 41.9264 1.50804 42.4133 2.34171C42.9174 3.20476 43.2703 4.42078 43.2703 5.84215C43.2703 7.40087 42.8201 8.73439 42.2178 9.60907L40.9426 1.00831ZM40.6967 12.409L39.4387 12.6444L37.8184 12.9476L37.8176 12.9478C37.095 13.0824 36.594 13.4563 36.1013 14.2518C35.5949 15.0693 35.1818 16.3122 34.8984 17.874C34.4465 20.3653 34.3646 23.403 34.3499 26.2893H36.4176H37.3633L37.4161 27.2335L37.4759 28.3039L37.476 28.3051L38.1399 40.4443H42.8923L43.6443 28.2861L43.6444 28.2853L43.7106 27.2267L43.7693 26.2892H44.7087H46.9248C46.878 23.4632 46.7132 20.4703 46.2157 18.0044M40.6967 12.409L47.196 17.8066M40.6967 12.409L41.7819 12.6557L43.3677 13.0163L43.3685 13.0164C43.9676 13.1521 44.4551 13.5164 44.9596 14.3501M40.6967 12.409L45.8152 13.8325M46.2157 18.0044L47.196 17.8066M46.2157 18.0044C46.2157 18.0044 46.2157 18.0044 46.2157 18.0044L47.196 17.8066M46.2157 18.0044C45.9023 16.4512 45.4705 15.1947 44.9596 14.3501M47.196 17.8066C46.8719 16.2003 46.4108 14.8171 45.8152 13.8325M44.9596 14.3501C44.9596 14.3501 44.9596 14.3501 44.9597 14.3502L45.8152 13.8325M44.9596 14.3501L45.8152 13.8325M31.7075 17.1341L32.0735 17.2006L31.7074 17.1341L31.7075 17.1341ZM31.7075 17.1341L32.0231 17.5038L31.0372 17.3362C31.041 17.3141 31.0461 17.2823 31.052 17.246C31.0635 17.1754 31.0777 17.0879 31.0896 17.022L31.0896 17.022L31.7075 17.1341ZM42.0036 11.6806L42.8267 12.2485L43.0538 11.9194L42.0036 11.6806ZM16.6781 2.82345C12.5192 2.533 7.29349 2.77701 1 3.78111V3.39881C6.8482 2.00861 11.9548 1.415 16.3047 1.41429C16.3047 1.41429 16.3048 1.41429 16.3048 1.41429C22.4093 1.41314 26.9782 2.57988 30.0224 4.30917C32.816 5.89617 34.2596 7.90724 34.579 9.90863C33.9117 10.4332 33.3501 11.0867 32.8974 11.8177C31.9699 13.3153 31.4382 15.1209 31.0987 16.9722C29.9045 17.9416 28.3972 18.8545 26.5587 19.6604C21.8289 21.7338 20.439 26.4194 22.0776 30.4673C23.6332 34.3098 27.8242 37.4541 34.0932 37.5937L34.3724 42.7208L34.3725 42.7224L34.4292 43.7949L34.4793 44.7421H35.4278H45.5821H46.2123C45.9807 45.0043 45.6922 45.2654 45.3389 45.5192L45.3388 45.5193C44.1362 46.3835 42.322 47 40.2605 47C39.8419 47 39.4297 46.9723 39.0263 46.923L38.9959 46.9193L38.9653 46.9175C29.7379 46.3609 23.5245 44.3526 19.5439 41.6704C15.5928 39.0082 13.8091 35.6647 13.4261 32.2808C13.0391 28.8617 14.0737 25.3037 15.9468 22.2692C17.8222 19.2311 20.4833 16.8077 23.2228 15.6167C26.2054 14.32 28.255 12.6388 28.9129 10.7187C29.2553 9.71946 29.2021 8.69605 28.7439 7.7437C28.2968 6.81417 27.4963 6.01588 26.4457 5.35431C24.3561 4.03845 21.0693 3.13013 16.6781 2.82345ZM46.7062 41.7788C46.911 42.1725 47 42.5555 47 42.9059C47 43.3355 46.8662 43.8143 46.5491 44.3016L46.5802 43.8043L46.6464 42.7418L46.6465 42.7415L46.7062 41.7788ZM47.9368 27.2892C47.9343 26.9598 47.9304 26.6261 47.9249 26.2892L47.9368 27.2892Z" stroke="#153041" stroke-width="2"/>
</svg>
